<svg xmlns="http://www.w3.org/2000/svg" version="1.1" xmlns:xlink="http://www.w3.org/1999/xlink" xmlns:svgjs="http://svgjs.dev/svgjs" width="1000" height="1000"><g clip-path="url(#SvgjsClipPath1207)"><rect width="1000" height="1000" fill="#212221"></rect><g transform="matrix(18.75,0,0,18.75,50,50)"><svg xmlns="http://www.w3.org/2000/svg" version="1.1" xmlns:xlink="http://www.w3.org/1999/xlink" xmlns:svgjs="http://svgjs.dev/svgjs" width="48" height="48"><svg id="Layer_1" xmlns="http://www.w3.org/2000/svg" version="1.1" viewBox="0 0 48 48">
  <!-- Generator: Adobe Illustrator 29.0.1, SVG Export Plug-In . SVG Version: 2.1.0 Build 192)  -->
  <defs>
    <style>
      .st0 {
        fill: #212221;
      }

      .st1 {
        fill: #fef6e6;
      }
    </style>
  <clipPath id="SvgjsClipPath1207"><rect width="1000" height="1000" x="0" y="0" rx="350" ry="350"></rect></clipPath></defs>
  <rect class="st0" width="48" height="48"></rect>
  <path class="st1" d="M8.5,35.5v-1.3l3.9-.9c.3,0,.6-.2.8-.3.2-.1.3-.3.3-.6V14.4c0-.3-.1-.4-.3-.6-.2-.1-.5-.2-.8-.3l-3.9-.9v-1.3h32v6.6h-3l-1.8-3.4c0-.2-.2-.3-.4-.5-.2-.1-.4-.2-.7-.2h-12.7v8.1h7.7c.4,0,.6,0,.8-.2.2-.1.3-.3.4-.4l1.6-2.8h2.5v9.2h-2.5l-1.6-2.8c-.1-.2-.2-.4-.4-.5-.2-.1-.4-.2-.8-.2h-7.7v8c0,.3.1.5.3.6s.5.2.8.3l4.2.9v1.3H8.5Z"></path>
</svg></svg></g></g></svg>