<svg xmlns="http://www.w3.org/2000/svg" shape-rendering="geometricPrecision" text-rendering="geometricPrecision" image-rendering="optimizeQuality" fill-rule="evenodd" clip-rule="evenodd" viewBox="0 0 512 512"><path fill="#285EFE" d="M256 0c140.799 0 256 115.201 256 256 0 140.803-115.201 256-256 256C115.197 512 0 396.803 0 256S115.197 0 256 0z"/><path fill="#204DCE" fill-rule="nonzero" d="M203.726 215.29c-4.232.18-7.24 1.585-8.973 4.224-4.711 7.06 1.717 14.036 6.179 18.951 12.656 13.889 43.673 47.273 49.918 54.62 4.734 5.234 11.474 5.234 16.207 0 6.451-7.537 39.03-42.441 51.061-55.952 4.175-4.7 9.337-11.111 4.988-17.619-1.774-2.639-4.749-4.044-8.982-4.224h-25.69v-63.64c0-6.781-5.566-12.348-12.349-12.348h-34.309c-6.787 0-12.349 5.56-12.349 12.348v63.64h-25.701zm-82.61 70.286c-3.933-16.263 20.695-22.233 24.626-5.961 1.643 6.786 3.055 13.608 4.411 20.455 2.535 12.801 4.41 20.825 9.138 24.824 5.003 4.235 14.468 5.697 32.606 5.697H329.2c16.744 0 25.48-1.601 30.077-5.757 4.425-4 6.158-11.832 8.404-23.855l.048-.236c1.32-7.071 2.689-14.137 4.387-21.128 3.929-16.257 28.532-10.309 24.625 5.933l-.006.025c-1.604 6.65-2.878 13.327-4.127 20.049l-.004.025c-3.307 17.711-6.016 29.863-15.095 38.396-8.944 8.408-22.956 11.964-48.309 11.964H191.898c-26.51 0-41.075-3.19-50.446-11.489-9.601-8.504-12.513-20.85-16.223-39.584-1.282-6.474-2.559-12.944-4.113-19.358z"/><path fill="#fff" fill-rule="nonzero" d="M197.87 209.434c-4.233.179-7.24 1.585-8.974 4.223-4.71 7.06 1.718 14.037 6.179 18.951 12.657 13.89 43.674 47.274 49.919 54.621 4.734 5.234 11.473 5.234 16.207 0 6.451-7.537 39.03-42.441 51.061-55.952 4.175-4.7 9.336-11.111 4.988-17.62-1.775-2.638-4.75-4.044-8.982-4.223h-25.691v-63.642c0-6.781-5.565-12.347-12.348-12.347h-34.31c-6.786 0-12.348 5.559-12.348 12.347v63.642H197.87zm-82.61 70.286c-3.933-16.263 20.695-22.233 24.625-5.961 1.644 6.786 3.055 13.608 4.412 20.455 2.535 12.801 4.41 20.825 9.138 24.824 5.003 4.235 14.468 5.696 32.605 5.696h137.304c16.744 0 25.48-1.601 30.077-5.756 4.424-4 6.158-11.833 8.404-23.855l.048-.237c1.32-7.07 2.689-14.136 4.386-21.127 3.93-16.257 28.533-10.31 24.626 5.933l-.006.025c-1.604 6.65-2.878 13.327-4.127 20.049l-.005.025c-3.306 17.711-6.015 29.862-15.095 38.396-8.943 8.408-22.955 11.964-48.308 11.964H186.042c-26.511 0-41.076-3.19-50.446-11.489-9.602-8.504-12.513-20.85-16.223-39.585-1.282-6.473-2.559-12.943-4.113-19.357z"/></svg>