<?xml version="1.0" encoding="UTF-8"?>
<svg id="Layer_1" xmlns="http://www.w3.org/2000/svg" version="1.1" viewBox="0 0 96 21">
  <!-- Generator: Adobe Illustrator 29.0.1, SVG Export Plug-In . SVG Version: 2.1.0 Build 192)  -->
  <defs>
    <style>
      .st0 {
        fill: #fef5e4;
      }
    </style>
  </defs>
  <path class="st0" d="M.8,19.3v-.9l1.3-.6c0,0,.2-.1.2-.2,0,0,0-.2,0-.3V6.3c0-.1,0-.3,0-.3,0,0-.1-.1-.2-.2l-1.3-.6v-.9h10.5v4.2h-1.1l-.5-2.1c0-.1,0-.2-.1-.3,0,0-.1-.1-.2-.1h-4.1v4.8h2.4c.1,0,.2,0,.2-.1,0,0,0-.2.1-.3l.5-1.7h.9v5.8h-.9l-.5-1.7c0-.1,0-.2-.1-.3,0,0-.1,0-.2,0h-2.4v4.7c0,.2,0,.3,0,.3,0,0,.1.1.2.2l1.4.6v.9H.8Z"/>
  <path class="st0" d="M12.4,19.3v-.9l1-.5c0,0,.2-.1.2-.2,0,0,0-.2,0-.3v-6.7c0-.3,0-.5,0-.6,0-.1-.1-.2-.3-.3l-1.1-.6v-.9l4-.6v2.4h0c.3-.6.6-1.1.9-1.5s.6-.6.9-.8.6-.2,1-.2.6,0,.8.1c.3,0,.5.2.7.4v3.5h-1.7l-.3-.8c0-.1-.1-.2-.3-.4s-.3-.2-.5-.2-.4,0-.5,0c-.2,0-.3.2-.5.3s-.3.3-.5.6v6.1c0,.3.1.4.3.5l1.3.5v.9h-5.7Z"/>
  <path class="st0" d="M24.2,19.6c-.5,0-1-.2-1.4-.5s-.7-.7-.9-1.2c-.2-.5-.3-1-.3-1.6s.1-1.3.4-1.8c.3-.5.6-.9,1.1-1.2.4-.3.9-.6,1.4-.7.5-.2,1-.2,1.4-.2s.2,0,.4,0c.2,0,.4,0,.6,0,.2,0,.3,0,.4,0v-1c0-.7,0-1.3-.3-1.6-.2-.4-.5-.5-1-.5s-.5,0-.8.2c-.3.2-.6.4-.9.6s-.6.5-.8.7c-.3.2-.5.4-.6.5h-.6v-2.6c.3-.2.7-.3,1.1-.4.4-.1.8-.3,1.3-.4.5,0,1-.1,1.6-.1s1.2,0,1.8.3c.6.2,1,.6,1.4,1.1.4.5.5,1.3.5,2.3v5.5c0,.3,0,.5.2.6.1.2.3.2.5.2s.2,0,.4,0c.1,0,.3,0,.4-.1h.3v1c-.1.1-.3.2-.6.4s-.5.3-.8.4c-.3.1-.6.2-.8.2-.7,0-1.2-.2-1.5-.5s-.5-.8-.5-1.5h-.1c-.3.6-.6,1-1,1.2-.4.3-.7.5-1.1.5-.4,0-.7.1-1,.1ZM25.7,17.6c.3,0,.6,0,.9-.2.3-.2.6-.4.8-.8v-2.9c-.6,0-1.1,0-1.6.2-.4.1-.8.4-1,.7-.2.3-.4.7-.4,1.3s0,.8.2,1.1.3.4.5.5c.2,0,.4.1.6.1Z"/>
  <path class="st0" d="M32.3,19.3v-.9l1-.5c.1,0,.2-.1.2-.2,0,0,0-.2,0-.3v-7.1c0-.2,0-.3-.1-.4,0,0-.2-.1-.3-.2l-1-.5v-.9l3.9-.6v1.8h.1c.4-.6.7-1,1-1.2.3-.3.7-.4,1-.5.3,0,.7-.1,1-.1.6,0,1.1.1,1.5.4s.8.7,1.1,1.2.4,1.3.4,2.2v5.8c0,.2,0,.3,0,.4,0,0,.1.1.2.2l.9.5v.9h-5.1v-.9l.8-.5c0,0,.2-.1.2-.2s.1-.2.1-.4v-4.5c0-.6,0-1.2-.1-1.6,0-.4-.2-.8-.4-1-.2-.2-.6-.3-1-.3s-.6,0-.9.1-.6.4-.8.8v6.6c0,.1,0,.3,0,.3,0,0,.1.1.2.2l.8.5v.9h-5.1Z"/>
  <path class="st0" d="M52.5,16.5h.4v1.3c-.4.4-1,.8-1.6,1.2-.6.4-1.3.6-2.2.6s-1.7-.2-2.4-.7c-.7-.5-1.2-1.2-1.5-2-.3-.9-.5-1.8-.5-3s.1-1.7.4-2.5c.3-.7.7-1.4,1.1-1.9.5-.5,1-1,1.6-1.3.6-.3,1.3-.4,1.9-.4s.9,0,1.2.2.7.2.9.4.5.2.6.3v2.7h-.6c-.3-.2-.6-.5-1-.8-.4-.3-.7-.5-1.1-.7-.4-.2-.7-.3-1.1-.3s-.3,0-.4.1c-.1,0-.2.2-.3.4,0,.2-.2.4-.3.7,0,.3-.2.7-.2,1.1,0,.5,0,1,0,1.5,0,1.3.2,2.3.7,3,.5.7,1.1,1,2.1,1s.6,0,.8-.1c.3,0,.5-.2.8-.4.2-.1.5-.3.6-.4Z"/>
  <path class="st0" d="M53.8,19.3v-.9l1.3-.6c.1,0,.2-.1.3-.2s0-.2,0-.3v-6.8c0-.2,0-.3-.1-.4,0,0-.2-.1-.3-.2l-1.2-.6v-.9l4.3-.3v9.2c0,.1,0,.3.1.3,0,0,.1.1.2.2l1.2.6v.9h-5.9ZM56.6,6.5c-.3,0-.5,0-.8-.2-.3-.2-.5-.4-.6-.7-.2-.3-.3-.6-.3-.9,0-.5.2-1,.5-1.3.3-.3.7-.5,1.2-.5s.9.1,1.3.4.5.7.5,1.2,0,.7-.3,1-.4.5-.6.7c-.3.2-.6.3-.9.3Z"/>
  <path class="st0" d="M61,18.9v-3.1h1.3l.3,1c0,.1,0,.2.2.3,0,.1.2.2.2.2.2.2.5.4.9.6.4.2.8.3,1.2.3s.5,0,.8-.2c.2-.1.4-.3.5-.5s.2-.5.2-.8-.1-.7-.4-1-.6-.4-1.1-.5c-.3,0-.6-.2-.9-.3s-.6-.2-.8-.3c-.8-.3-1.3-.7-1.7-1.2s-.6-1.2-.6-1.9.2-1.4.6-2c.4-.6.9-1,1.6-1.3.6-.3,1.4-.5,2.1-.5s1.3,0,1.8.1,1,.2,1.4.4v3.2s-1.2,0-1.2,0l-.3-1.1c0-.1,0-.2-.2-.3s-.2-.2-.2-.2c-.2-.1-.4-.3-.8-.4s-.6-.2-1-.2-.7.1-.9.3c-.2.2-.3.5-.3.9s.1.8.4,1,.6.4,1.1.6c.3,0,.6.2.9.3.3,0,.5.2.8.3.7.3,1.3.7,1.7,1.2.4.5.6,1.1.6,1.9s-.2,1.6-.6,2.2c-.4.6-1,1-1.6,1.3s-1.4.4-2.1.4-1.4,0-2.1-.3-1.2-.3-1.6-.5Z"/>
  <path class="st0" d="M78.2,16.5h.4v1.3c-.4.4-1,.8-1.6,1.2-.6.4-1.3.6-2.2.6s-1.7-.2-2.4-.7c-.7-.5-1.2-1.2-1.5-2-.3-.9-.5-1.8-.5-3s.1-1.7.4-2.5c.3-.7.7-1.4,1.1-1.9.5-.5,1-1,1.6-1.3.6-.3,1.3-.4,1.9-.4s.9,0,1.2.2.7.2.9.4.5.2.6.3v2.7h-.6c-.3-.2-.6-.5-1-.8-.4-.3-.7-.5-1.1-.7-.4-.2-.7-.3-1.1-.3s-.3,0-.4.1c-.1,0-.2.2-.3.4,0,.2-.2.4-.3.7,0,.3-.2.7-.2,1.1,0,.5,0,1,0,1.5,0,1.3.2,2.3.7,3,.5.7,1.1,1,2.1,1s.6,0,.8-.1c.3,0,.5-.2.8-.4.2-.1.5-.3.6-.4Z"/>
  <path class="st0" d="M84.5,19.6c-1,0-1.8-.2-2.6-.7-.7-.5-1.3-1.1-1.7-2-.4-.9-.6-2-.6-3.2s.2-2.2.6-3.1c.4-.9,1-1.6,1.7-2.1.7-.5,1.6-.8,2.6-.8s2,.3,2.7.8c.7.5,1.3,1.3,1.6,2.2.4.9.5,1.9.5,3s-.2,2.2-.6,3.1c-.4.9-1,1.6-1.7,2.1-.7.5-1.6.8-2.7.8ZM84.6,18.1c.4,0,.7-.1,1-.4.3-.3.5-.6.6-1,.1-.4.2-.9.3-1.4,0-.5,0-1,0-1.5,0-.8,0-1.5-.2-2.3-.1-.7-.4-1.3-.7-1.7s-.7-.7-1.2-.7-.7.1-1,.4c-.3.2-.5.6-.6,1-.1.4-.2.9-.3,1.4,0,.5,0,1,0,1.5s0,1.1,0,1.6c0,.5.2,1.1.3,1.5.2.5.4.8.6,1.1.3.3.6.4,1,.4Z"/>
  <path class="st0" d="M91.2,17.5c0-.6.2-1.1.5-1.5s.7-.6,1.2-.6.9.2,1.2.6.5.9.5,1.5-.2,1.1-.5,1.5-.7.6-1.2.6-.9-.2-1.2-.6c-.3-.4-.5-.9-.5-1.5Z"/>
</svg>